<svg id="Layer_2" data-name="Layer 2" xmlns="http://www.w3.org/2000/svg" viewBox="0 0 149 49"><defs><style>.cls-1{fill:#fff;}</style></defs><title>logo</title><path class="cls-1" d="M36,1.31L18,49,0,1.31H36ZM18,28.39L24.91,8.9H11.07Z"/><path class="cls-1" d="M48.4,9V20.41H67.13V28H48.4V39.45H70.93V47.1H40.87V1.31H70.93V9H48.4Z"/><path class="cls-1" d="M102.34,47.1L90.62,28H86.31V47.1H78.78V20.41h7.14L78.78,9V1.31h15s15.06,0,15.06,13.35c0,8.11-5.53,11.32-9.91,12.56L111.15,47.1h-8.82ZM94.74,20.35c2-.2,6.56-1.18,6.56-5.69C101.31,9,93.78,9,93.78,9h-6Z"/><path class="cls-1" d="M138.9,41.8H123.06l-1.93,5.3H113L131,0l18,47.1h-8.11ZM125.51,35.2h10.94L131,19.3Z"/></svg>